# xmcd CD database file
# Copyright (C) 1997 Ti Kan
# 
# Track frame offsets:
#     182
#     10610
#     24245
#     38452
#     59050
#     76227
#     90632
#     109547
#     131220
# 
# Disc length: 1999 seconds
# 
# Revision: 1
# Processed by: cddbd v1.4b41PL1 Copyright (c) Steve Scherf et al.
# Submitted via: DiscPlay 4.0.3
# 
DISCID=6107cd09
DTITLE=Terry McMillan - I've Got A Feeling
DYEAR=1900
DGENRE=
TTITLE0=I'll Fly Away
TTITLE1=Just As I Am
TTITLE2=When The Saints Go Marching In
TTITLE3=Jesus Loves Me
TTITLE4=Swing Low Sweet Chariot
TTITLE5=I Saw The Light
TTITLE6=Amazing Grace
TTITLE7=I've Got A Feeling
TTITLE8=This Train
EXTD=
EXTT0=
EXTT1=
EXTT2=
EXTT3=
EXTT4=
EXTT5=
EXTT6=
EXTT7=
EXTT8=
PLAYORDER=
